<svg width="22" height="22" viewBox="0 0 22 22" fill="none" xmlns="http://www.w3.org/2000/svg">
<path fill-rule="evenodd" clip-rule="evenodd" d="M7.16749 1.74759C7.64355 1.19841 8.2322 0.758104 8.89349 0.456564C9.55478 0.155023 10.2732 -0.000688557 11 2.28877e-06C12.531 2.28877e-06 13.9029 0.676925 14.8325 1.74759C15.5576 1.69582 16.2853 1.80071 16.9663 2.05515C17.6473 2.30958 18.2655 2.7076 18.779 3.22216C19.2933 3.73556 19.6912 4.3536 19.9456 5.03434C20.2001 5.71508 20.3051 6.44259 20.2535 7.16749C20.8025 7.64365 21.2426 8.23235 21.544 8.89364C21.8453 9.55492 22.0008 10.2733 22 11C22.0007 11.7268 21.845 12.4452 21.5434 13.1065C21.2419 13.7678 20.8016 14.3565 20.2524 14.8325C20.3039 15.5574 20.1989 16.2849 19.9445 16.9657C19.6901 17.6464 19.2922 18.2644 18.7778 18.7778C18.2644 19.2922 17.6464 19.6901 16.9657 19.9445C16.2849 20.1989 15.5574 20.3039 14.8325 20.2524C14.3565 20.8016 13.7678 21.2419 13.1065 21.5434C12.4452 21.845 11.7268 22.0007 11 22C10.2732 22.0007 9.55478 21.845 8.89349 21.5434C8.2322 21.2419 7.64355 20.8016 7.16749 20.2524C6.44248 20.3043 5.71479 20.1996 5.03383 19.9454C4.35288 19.6911 3.73462 19.2933 3.22103 18.779C2.70653 18.2654 2.30855 17.6472 2.05412 16.9663C1.79969 16.2853 1.69477 15.5576 1.74646 14.8325C1.19749 14.3564 0.757395 13.7676 0.456051 13.1064C0.154708 12.4451 -0.000827665 11.7267 3.31224e-06 11C3.31224e-06 9.46903 0.676926 8.09713 1.74759 7.16749C1.69598 6.44258 1.80096 5.71505 2.05539 5.0343C2.30982 4.35355 2.70775 3.73552 3.22216 3.22216C3.73552 2.70775 4.35355 2.30982 5.0343 2.05539C5.71505 1.80096 6.44258 1.69598 7.16749 1.74759ZM15.0728 8.95344C15.1405 8.86324 15.1895 8.76042 15.2169 8.65102C15.2443 8.54162 15.2495 8.42785 15.2323 8.3164C15.2151 8.20495 15.1758 8.09806 15.1167 8.00202C15.0575 7.90598 14.9798 7.82272 14.8881 7.75714C14.7963 7.69157 14.6924 7.64499 14.5824 7.62016C14.4724 7.59532 14.3585 7.59273 14.2475 7.61252C14.1365 7.63232 14.0305 7.67411 13.9359 7.73544C13.8413 7.79677 13.7598 7.87639 13.6964 7.96964L10.0455 13.0804L8.21333 11.2482C8.05293 11.0987 7.84078 11.0174 7.62157 11.0212C7.40235 11.0251 7.1932 11.1139 7.03817 11.2689C6.88314 11.424 6.79434 11.6331 6.79047 11.8523C6.7866 12.0715 6.86797 12.2837 7.01744 12.4441L9.5559 14.9826C9.64276 15.0694 9.74747 15.1362 9.86276 15.1785C9.97805 15.2207 10.1012 15.2374 10.2235 15.2273C10.3459 15.2172 10.4646 15.1806 10.5714 15.12C10.6782 15.0595 10.7706 14.9764 10.8421 14.8765L15.0728 8.95344Z" fill="#F5AE93"/>
</svg>
