<svg width="116" height="33" viewBox="0 0 116 33" fill="none" xmlns="http://www.w3.org/2000/svg">
<path d="M40.8873 26.1734H40.7992L40.5206 27.6061H38V8H41.1979V13.0733L41.1097 15.3375C42.2478 14.3377 43.6464 13.6384 45.045 13.6384C48.4532 13.6384 50.4249 16.3694 50.4249 20.5611C50.4249 25.2397 47.6377 27.9387 44.6082 27.9387C43.3639 27.9387 42.0314 27.3055 40.8873 26.1734ZM47.1368 20.6112C47.1368 17.8922 46.2492 16.2812 44.1734 16.2812C43.1855 16.2812 42.2298 16.7802 41.1979 17.8141V24.1637C42.1536 24.9973 43.1415 25.2958 43.9289 25.2958C45.7503 25.2958 47.1368 23.6969 47.1368 20.6112Z" fill="#168F8E"/>
<path d="M51.6171 20.7995C51.6171 16.3694 54.6927 13.6384 57.9006 13.6384C61.5874 13.6384 63.529 16.3033 63.529 20.1103C63.529 20.7214 63.4629 21.3305 63.3907 21.6651H54.7368C55.0033 24.0856 56.5582 25.4621 58.7562 25.4621C59.9223 25.4621 60.9202 25.0954 61.92 24.4743L63.008 26.462C61.7096 27.3396 60.0666 27.9387 58.3334 27.9387C54.5705 27.9387 51.6171 25.2958 51.6171 20.7995ZM60.7659 19.4891C60.7659 17.3913 59.8342 16.1149 57.9688 16.1149C56.3818 16.1149 54.9833 17.3031 54.7047 19.4891H60.7659Z" fill="#168F8E"/>
<path d="M64.579 20.7995C64.579 16.3694 67.6546 13.6384 70.8625 13.6384C74.5493 13.6384 76.4909 16.3033 76.4909 20.1103C76.4909 20.7214 76.4248 21.3305 76.3526 21.6651H67.6987C67.9652 24.0856 69.5201 25.4621 71.7181 25.4621C72.8843 25.4621 73.8821 25.0954 74.8819 24.4743L75.9699 26.462C74.6715 27.3396 73.0285 27.9387 71.2953 27.9387C67.5324 27.9387 64.579 25.2958 64.579 20.7995ZM73.7278 19.4891C73.7278 17.3913 72.7961 16.1149 70.9307 16.1149C69.3437 16.1149 67.9452 17.3031 67.6667 19.4891H73.7278Z" fill="#168F8E"/>
<path d="M77.3625 25.8949L83.7903 16.5137H78.0838V13.971H87.7977V15.6802L81.3698 25.0614H88.0081V27.6041H77.3605V25.8949H77.3625Z" fill="#168F8E"/>
<path d="M88.8917 23.9413C88.8917 21.0219 91.3122 19.5011 96.9065 18.9C96.8624 17.4353 96.2733 16.2131 94.4299 16.2131C93.0754 16.2131 91.7991 16.8242 90.5989 17.5576L89.4227 15.4257C90.9215 14.4819 92.853 13.6384 95.017 13.6384C98.4253 13.6384 100.102 15.7362 100.102 19.5332V27.6041H97.4815L97.2371 26.0933H97.1489C95.9287 27.1372 94.5281 27.9367 92.9191 27.9367C90.5347 27.9387 88.8917 26.3177 88.8917 23.9413ZM96.9085 23.9533V20.8897C93.2117 21.3566 91.9794 22.3223 91.9794 23.6989C91.9794 24.9031 92.8009 25.4301 93.945 25.4301C95.0531 25.4301 95.8966 24.8851 96.9085 23.9533Z" fill="#168F8E"/>
<path d="M102.835 13.971H105.456L105.701 15.4257H105.789C106.939 14.4378 108.398 13.6384 109.896 13.6384C113.305 13.6384 115.258 16.3694 115.258 20.5771C115.258 25.2397 112.471 27.9387 109.441 27.9387C108.231 27.9387 107.043 27.3957 105.933 26.4399L106.033 28.7041V33H102.835V13.971ZM111.974 20.6112C111.974 17.8922 111.087 16.2812 109.011 16.2812C108.023 16.2812 107.089 16.7801 106.035 17.814V24.1637C107.013 24.9973 107.979 25.2958 108.766 25.2958C110.586 25.2958 111.974 23.6969 111.974 20.6112Z" fill="#168F8E"/>
<path d="M34 33V12.0164C34 5.41169 28.4238 0 21.6183 0H12.3817C5.56938 0 0 5.41169 0 12.0164V20.9803C0 27.5916 5.56938 32.9967 12.3817 32.9967H34V33Z" fill="#168F8E"/>
<path d="M20.0358 10.5483L22.6223 15.0783L19.9915 19.581L14.7775 19.5572L12.1909 15.0272L14.8183 10.5211L20.0358 10.5483Z" stroke="white" stroke-miterlimit="10"/>
<path d="M12.3135 15.0953L14.9001 19.6252L12.2726 24.1313L7.05521 24.1041L4.46863 19.5776L7.09946 15.0715L12.3135 15.0953Z" stroke="white" stroke-miterlimit="10"/>
<path d="M27.8364 15.0953L30.423 19.6252L27.7922 24.1313L22.5782 24.1041L19.9916 19.5776L22.619 15.0715L27.8364 15.0953Z" stroke="white" stroke-miterlimit="10"/>
<path d="M19.9916 19.5742L22.5782 24.1041L19.9507 28.6102L14.7333 28.583L12.1467 24.0531L14.7776 19.5504L19.9916 19.5742Z" stroke="white" stroke-miterlimit="10"/>
<path d="M14.9203 10.3339C14.9203 10.3339 14.58 7.16198 10.1113 5.64746" stroke="white" stroke-miterlimit="10"/>
<path d="M9.35586 6.2907C9.91975 6.2907 10.3769 5.83357 10.3769 5.26968C10.3769 4.70578 9.91975 4.24866 9.35586 4.24866C8.79197 4.24866 8.33484 4.70578 8.33484 5.26968C8.33484 5.83357 8.79197 6.2907 9.35586 6.2907Z" stroke="white" stroke-miterlimit="10"/>
<path d="M19.9269 10.3339C19.9269 10.3339 20.2672 7.16198 24.7359 5.64746" stroke="white" stroke-miterlimit="10"/>
<path d="M25.4915 6.2907C26.0554 6.2907 26.5125 5.83357 26.5125 5.26968C26.5125 4.70578 26.0554 4.24866 25.4915 4.24866C24.9276 4.24866 24.4705 4.70578 24.4705 5.26968C24.4705 5.83357 24.9276 6.2907 25.4915 6.2907Z" stroke="white" stroke-miterlimit="10"/>
</svg>
