<svg width="21" height="22" viewBox="0 0 21 22" fill="none" xmlns="http://www.w3.org/2000/svg">
<path d="M19.4446 0.111084H7.00014C6.58758 0.111084 6.19192 0.274972 5.90019 0.566696C5.60847 0.858419 5.44458 1.25408 5.44458 1.66664H19.4446V20.3333H7.00014V12.7111H5.44458V20.3333C5.44458 20.7459 5.60847 21.1415 5.90019 21.4332C6.19192 21.725 6.58758 21.8889 7.00014 21.8889H19.4446C19.8571 21.8889 20.2528 21.725 20.5445 21.4332C20.8362 21.1415 21.0001 20.7459 21.0001 20.3333V1.66664C21.0001 1.25408 20.8362 0.858419 20.5445 0.566696C20.2528 0.274972 19.8571 0.111084 19.4446 0.111084Z" fill="#F7F5FA"/>
<path d="M9.42667 11.3578C9.34525 11.4275 9.27912 11.5133 9.23244 11.6098C9.18575 11.7063 9.15952 11.8114 9.15538 11.9185C9.15124 12.0256 9.16929 12.1324 9.20839 12.2322C9.2475 12.332 9.30681 12.4227 9.38261 12.4985C9.4584 12.5743 9.54905 12.6336 9.64886 12.6727C9.74867 12.7118 9.85548 12.7299 9.9626 12.7257C10.0697 12.7216 10.1748 12.6953 10.2713 12.6487C10.3678 12.602 10.4536 12.5358 10.5233 12.4544L15.0267 7.9511L10.5311 3.44776C10.3823 3.32034 10.1909 3.25376 9.99518 3.26132C9.79943 3.26888 9.61375 3.35003 9.47523 3.48855C9.33671 3.62707 9.25556 3.81275 9.248 4.0085C9.24044 4.20425 9.30702 4.39564 9.43444 4.54443L12.0556 7.1111H0.777778C0.571498 7.1111 0.373667 7.19304 0.227806 7.3389C0.0819442 7.48476 0 7.6826 0 7.88888C0 8.09515 0.0819442 8.29298 0.227806 8.43885C0.373667 8.58471 0.571498 8.66665 0.777778 8.66665H12.0556L9.42667 11.3578Z" fill="#F7F5FA"/>
</svg>
