<svg width="38" height="30" viewBox="0 0 38 30" fill="none" xmlns="http://www.w3.org/2000/svg">
<path d="M19.0029 7.14286C19.0029 9.03726 18.2329 10.8541 16.8622 12.1936C15.4916 13.5332 13.6325 14.2857 11.6941 14.2857C9.75569 14.2857 7.89666 13.5332 6.52599 12.1936C5.15532 10.8541 4.38529 9.03726 4.38529 7.14286C4.38529 5.24845 5.15532 3.43164 6.52599 2.09209C7.89666 0.752549 9.75569 0 11.6941 0C13.6325 0 15.4916 0.752549 16.8622 2.09209C18.2329 3.43164 19.0029 5.24845 19.0029 7.14286ZM29.2353 14.2857C30.786 14.2857 32.2732 13.6837 33.3698 12.612C34.4663 11.5404 35.0823 10.087 35.0823 8.57143C35.0823 7.05591 34.4663 5.60245 33.3698 4.53082C32.2732 3.45918 30.786 2.85714 29.2353 2.85714C27.6845 2.85714 26.1973 3.45918 25.1008 4.53082C24.0042 5.60245 23.3882 7.05591 23.3882 8.57143C23.3882 10.087 24.0042 11.5404 25.1008 12.612C26.1973 13.6837 27.6845 14.2857 29.2353 14.2857ZM26.3117 21.6971V21.4286C26.3139 19.8827 25.8007 18.3783 24.85 17.1429H34.4187C36.395 17.1429 38 18.7086 38 20.6429C38 20.6429 38 27.1429 29.2294 27.1429C27.4812 27.1429 26.0808 26.8857 24.9611 26.4714C25.6594 25.2208 26.1032 23.8499 26.2679 22.4343C26.2854 22.2571 26.2971 22.1057 26.303 21.98L26.3117 21.6943V21.6971ZM23.3882 21.4286C23.3882 20.2919 22.9262 19.2018 22.1038 18.3981C21.2814 17.5944 20.166 17.1429 19.0029 17.1429H4.38529C3.22224 17.1429 2.10682 17.5944 1.28442 18.3981C0.46202 19.2018 0 20.2919 0 21.4286V21.6429C0 21.6429 0 30 11.6941 30C22.8386 30 23.3619 22.4114 23.3882 21.6971V21.4286Z" fill="#23221D"/>
</svg>
